<svg width="17" height="12" viewBox="0 0 17 12" fill="none" xmlns="http://www.w3.org/2000/svg">
<path fill-rule="evenodd" clip-rule="evenodd" d="M16 0.666748H15C14.4477 0.666748 14 1.11446 14 1.66675V10.3334C14 10.8857 14.4477 11.3334 15 11.3334H16C16.5523 11.3334 17 10.8857 17 10.3334V1.66675C17 1.11446 16.5523 0.666748 16 0.666748ZM10.3333 3H11.3333C11.8856 3 12.3333 3.44772 12.3333 4V10.3333C12.3333 10.8856 11.8856 11.3333 11.3333 11.3333H10.3333C9.78103 11.3333 9.33331 10.8856 9.33331 10.3333V4C9.33331 3.44772 9.78103 3 10.3333 3ZM6.66669 5.3335H5.66669C5.1144 5.3335 4.66669 5.78121 4.66669 6.3335V10.3335C4.66669 10.8858 5.1144 11.3335 5.66669 11.3335H6.66669C7.21897 11.3335 7.66669 10.8858 7.66669 10.3335V6.3335C7.66669 5.78121 7.21897 5.3335 6.66669 5.3335ZM2 7.3335H1C0.447715 7.3335 0 7.78121 0 8.3335V10.3335C0 10.8858 0.447715 11.3335 1 11.3335H2C2.55228 11.3335 3 10.8858 3 10.3335V8.3335C3 7.78121 2.55228 7.3335 2 7.3335Z" fill="white"/>
</svg>
