<svg width="16" height="12" viewBox="0 0 16 12" fill="none" xmlns="http://www.w3.org/2000/svg">
<path fill-rule="evenodd" clip-rule="evenodd" d="M7.66707 2.61504C9.8918 2.61514 12.0315 3.46925 13.6438 5.00084C13.7652 5.11909 13.9593 5.1176 14.0789 4.9975L15.2395 3.82717C15.3 3.76626 15.3338 3.68375 15.3333 3.5979C15.3328 3.51205 15.2981 3.42994 15.2368 3.36974C11.0049 -0.682491 4.32857 -0.682491 0.0966565 3.36974C0.0353544 3.4299 0.000572274 3.51198 6.99859e-06 3.59783C-0.000558277 3.68368 0.0331399 3.76621 0.0936446 3.82717L1.25459 4.9975C1.37409 5.11778 1.56831 5.11927 1.68965 5.00084C3.30221 3.46915 5.44212 2.61504 7.66707 2.61504ZM7.66705 6.42258C8.8894 6.42251 10.0681 6.87646 10.9742 7.69624C11.0967 7.81258 11.2898 7.81006 11.4093 7.69055L12.5685 6.52022C12.6296 6.45884 12.6635 6.37556 12.6626 6.28902C12.6617 6.20249 12.6261 6.11992 12.5638 6.05978C9.80468 3.49537 5.53177 3.49537 2.77261 6.05978C2.71028 6.11991 2.67472 6.20253 2.6739 6.28909C2.67309 6.37565 2.70708 6.45892 2.76826 6.52022L3.92719 7.69055C4.04666 7.81006 4.23971 7.81258 4.36226 7.69624C5.26773 6.877 6.44552 6.42309 7.66705 6.42258ZM9.98929 8.98446C9.99106 9.07123 9.95692 9.1549 9.89492 9.21569L7.88962 11.2377C7.83083 11.2971 7.75069 11.3306 7.66707 11.3306C7.58344 11.3306 7.5033 11.2971 7.44452 11.2377L5.43888 9.21569C5.37692 9.15485 5.34284 9.07116 5.34468 8.98438C5.34651 8.8976 5.38411 8.81543 5.44858 8.75726C6.72924 7.67499 8.60489 7.67499 9.88555 8.75726C9.94998 8.81548 9.98751 8.89768 9.98929 8.98446Z" fill="white"/>
</svg>
